<?xml version="1.0" encoding="utf-8"?>
<!-- Generator: Adobe Illustrator 22.1.0, SVG Export Plug-In . SVG Version: 6.00 Build 0)  -->
<svg version="1.2" baseProfile="tiny" id="Ebene_1" xmlns="http://www.w3.org/2000/svg" xmlns:xlink="http://www.w3.org/1999/xlink"
	 x="0px" y="0px" viewBox="0 0 745 179.812" xml:space="preserve">
<g>
	<path d="M92.45,51.15v0.75H70.1v-0.75c-0.501-5-2.227-8.874-5.175-11.625c-2.951-2.75-7.076-4.125-12.375-4.125
		c-5.201,0-9.476,1.275-12.825,3.825C36.374,41.775,34.7,45.4,34.7,50.1c0,5.201,2.4,8.801,7.2,10.8c4.8,2.001,11.798,4.05,21,6.15
		c11.798,2.602,20.175,6.276,25.125,11.025c4.95,4.751,7.425,10.927,7.425,18.525c0,10.601-4.252,19.125-12.75,25.575
		c-8.501,6.451-19.5,9.676-33,9.676c-14.602,0-25.327-3.049-32.175-9.15C10.674,116.602,7.25,107.25,7.25,94.65h23.7v0.9
		c0,6.802,1.699,11.775,5.1,14.925c3.398,3.15,8.25,4.725,14.55,4.725c5.798,0,10.673-1.298,14.625-3.9
		c3.949-2.599,5.925-6.398,5.925-11.4c0-3.099-0.9-5.648-2.7-7.65c-1.8-2-7.5-4.2-17.1-6.6c-16.901-4.099-27.9-8.775-33-14.025
		S10.7,60.101,10.7,52.8c0-10.5,3.825-18.75,11.475-24.75s18.125-9,31.425-9c12,0,21.473,2.827,28.425,8.475
		C88.974,33.176,92.45,41.051,92.45,51.15z"/>
	<path d="M168.796,48.869v13.35h-23.918V129.3h-17.354V62.219h-23.917v-13.35C103.607,48.869,168.796,48.869,168.796,48.869z"/>
	<path d="M212.849,48.869c9.122,0,15.741,2.058,19.857,6.174s6.174,9.03,6.174,14.74c0,4.895-1.373,9.011-4.116,12.348
		c-2.745,3.337-6.972,5.785-12.682,7.342c4.672,0.52,8.083,1.947,10.235,4.283c2.15,2.336,3.727,8.215,4.728,17.632
		c1.001,9.42,2.464,15.391,4.394,17.91h-19.023c-1.93-13.571-3.209-22.377-3.838-26.42c-0.631-4.042-3.432-6.063-8.399-6.063
		h-15.908v32.483h-17.577v-80.43L212.849,48.869L212.849,48.869z M208.732,84.023c3.708,0,6.656-1.038,8.844-3.115
		c2.187-2.075,3.282-4.895,3.282-8.455s-0.984-6.266-2.948-8.121c-1.966-1.853-4.951-2.781-8.956-2.781h-15.241v22.472H208.732z"/>
	<path d="M314.75,119.733c-6.824,7.714-16.242,11.569-28.257,11.569c-12.164,0-21.637-3.616-28.423-10.847
		c-6.786-7.231-10.179-17.335-10.179-30.314c0-13.35,3.374-23.843,10.123-31.482c6.748-7.638,16.242-11.458,28.479-11.458
		c12.607,0,22.175,3.821,28.701,11.458c6.525,7.64,9.79,17.541,9.79,29.703C324.984,101.563,321.572,112.02,314.75,119.733z
		 M302.068,110.388c3.263-5.488,4.895-12.978,4.895-22.472c0-8.603-1.762-15.481-5.284-20.636c-3.523-5.154-8.51-7.731-14.962-7.731
		c-6.824,0-11.997,2.541-15.519,7.62c-3.523,5.081-5.284,12.292-5.284,21.637c0,10.012,1.742,17.485,5.229,22.416
		c3.485,4.933,8.491,7.397,15.018,7.397C293.502,118.62,298.803,115.877,302.068,110.388z"/>
	<path d="M364.478,48.869l17.021,58.515l18.355-58.515h27.366v80.43h-17.132V60.327l-21.915,68.972h-14.24l-21.47-68.972v68.972
		h-16.131v-80.43C336.332,48.869,364.478,48.869,364.478,48.869z"/>
	<path d="M472.161,48.98c11.792,0,19.56,2.133,23.306,6.396c3.744,4.266,5.618,9.104,5.618,14.518c0,4.672-1.279,8.418-3.838,11.236
		c-2.559,2.819-5.879,4.895-9.957,6.229v0.223c5.34,0.89,9.512,3.17,12.516,6.842c3.003,3.671,4.505,7.917,4.505,12.738
		c0,6.157-2.244,11.311-6.73,15.463c-4.487,4.154-12.923,6.379-25.308,6.674h-30.037V48.98H472.161z M471.271,81.687
		c4.153,0,7.398-0.723,9.734-2.169s3.504-4.171,3.504-8.176c0-3.337-0.945-5.84-2.837-7.509c-1.891-1.668-5.136-2.503-9.733-2.503
		H458.7v20.358L471.271,81.687L471.271,81.687z M471.159,116.396c6.453,0,10.735-0.89,12.85-2.67c2.113-1.78,3.17-4.486,3.17-8.121
		c0-3.782-1.15-6.637-3.448-8.566c-2.3-1.928-7.083-2.893-14.351-2.893H458.7v22.25H471.159z"/>
	<path d="M570.946,48.869v13.127h-36.6V81.13h34.264v13.127h-34.264v21.693h37.823v13.349h-55.066v-80.43
		C517.103,48.869,570.946,48.869,570.946,48.869z"/>
	<path d="M619.672,48.869c9.122,0,15.741,2.058,19.857,6.174c4.115,4.116,6.174,9.03,6.174,14.74c0,4.895-1.373,9.011-4.116,12.348
		c-2.745,3.337-6.972,5.785-12.682,7.342c4.672,0.52,8.082,1.947,10.234,4.283c2.15,2.336,3.727,8.215,4.728,17.632
		c1.002,9.42,2.465,15.391,4.395,17.91h-19.023c-1.929-13.571-3.208-22.377-3.838-26.42c-0.631-4.042-3.431-6.063-8.398-6.063
		h-15.908v32.483h-17.577v-80.43L619.672,48.869L619.672,48.869z M615.556,84.023c3.707,0,6.655-1.038,8.844-3.115
		c2.187-2.075,3.282-4.895,3.282-8.455s-0.984-6.266-2.948-8.121c-1.966-1.853-4.95-2.781-8.955-2.781h-15.241v22.472H615.556z"/>
	<path d="M729.472,73.565h-17.911c-0.149-4.745-1.596-8.324-4.338-10.735c-2.745-2.409-6.527-3.616-11.348-3.616
		c-7.491,0-13.276,2.67-17.354,8.01c-4.079,5.34-6.118,12.868-6.118,22.583c0,9.345,2.095,16.428,6.285,21.248
		c4.189,4.822,10.363,7.231,18.522,7.231c2.818,0,5.413-0.111,7.787-0.334c2.373-0.222,4.412-0.629,6.119-1.224V99.82h-15.575V86.47
		h32.818v40.159c-4.673,1.633-9.364,2.781-14.073,3.449c-4.71,0.668-9.809,1.001-15.296,1.001c-15.946,0-27.405-3.633-34.375-10.901
		c-6.972-7.268-10.457-17.206-10.457-29.814c0-13.572,3.838-24.251,11.514-32.039c7.676-7.787,17.892-11.681,30.648-11.681
		c9.789,0,17.761,2.319,23.918,6.953C726.394,58.233,729.472,64.888,729.472,73.565z"/>
</g>
<path d="M724.583,174.79l-677.909,2.967c-10.171,0-43.849,1.185-43.849-7.416l0,0c0-8.602,31.924-8.9,42.095-8.9l679.663-17.799
	c10.171,0,18.417,6.973,18.417,15.574l0,0C743,167.817,734.755,174.79,724.583,174.79z"/>
</svg>
